<?xml version="1.0" standalone="no"?>
<!DOCTYPE svg PUBLIC "-//W3C//DTD SVG 20010904//EN"
 "http://www.w3.org/TR/2001/REC-SVG-20010904/DTD/svg10.dtd">
<svg version="1.0" xmlns="http://www.w3.org/2000/svg"
 width="256.000000pt" height="256.000000pt" viewBox="0 0 256.000000 256.000000"
 preserveAspectRatio="xMidYMid meet">

<g transform="translate(0.000000,256.000000) scale(0.100000,-0.100000)"
fill="#000000" stroke="none">
<path d="M1224 1999 c-17 -5 -37 -16 -44 -24 -10 -12 -48 -15 -225 -15 -193 0
-213 -2 -228 -18 -15 -16 -17 -47 -17 -225 0 -197 -1 -206 -20 -212 -21 -7
-46 -47 -50 -80 -5 -48 2 -69 35 -102 l35 -35 0 -178 c0 -149 3 -181 16 -194
13 -14 48 -16 225 -16 199 0 211 -1 239 -21 38 -29 102 -29 140 0 28 20 40 21
239 21 177 0 212 2 225 16 13 13 16 45 16 198 0 182 0 183 23 193 26 12 57 68
57 103 0 31 -25 75 -54 94 l-26 16 0 204 c0 184 -2 204 -18 219 -16 15 -47 17
-226 17 -189 0 -209 2 -234 20 -35 25 -69 31 -108 19z m65 -93 c22 -26 -10
-63 -44 -50 -15 6 -21 45 -8 57 11 12 40 8 52 -7z m439 -204 c2 -148 0 -173
-13 -178 -22 -9 -40 10 -54 55 -19 65 -92 154 -165 201 -50 32 -66 48 -66 66
0 29 16 31 175 30 l120 -1 3 -173z m-638 140 c0 -22 -8 -31 -45 -51 -82 -44
-162 -145 -198 -253 -4 -10 -16 -18 -27 -18 -19 0 -20 6 -20 175 l0 175 145 0
145 0 0 -28z m318 -106 c71 -36 122 -84 156 -145 l27 -51 -98 0 -98 0 -15 32
c-23 48 -63 73 -118 72 -57 -1 -100 -26 -118 -71 l-14 -33 -95 0 c-108 0 -110
2 -67 71 33 51 78 91 136 121 65 33 86 38 171 34 63 -2 91 -8 133 -30z m-108
-186 c24 -24 25 -38 4 -68 -17 -24 -62 -30 -82 -10 -29 29 -1 98 40 98 10 0
27 -9 38 -20z m-127 -135 l47 -45 0 -151 0 -152 -36 6 c-40 7 -103 37 -150 73
-30 22 -94 108 -94 126 0 12 84 10 97 -3 17 -17 54 -6 76 24 l21 27 -21 28
c-16 20 -28 26 -49 24 -16 -2 -57 -6 -91 -8 l-63 -6 0 51 0 51 108 0 108 0 47
-45z m437 -5 l0 -50 -47 0 c-26 0 -61 5 -79 12 -63 23 -112 -45 -67 -94 17
-19 58 -24 68 -8 8 14 95 13 95 -1 0 -20 -59 -97 -99 -128 -49 -39 -118 -70
-153 -71 l-28 0 0 154 0 154 33 21 c17 11 38 29 45 40 11 19 22 21 122 21
l110 0 0 -50z m-832 -1 c3 -28 -16 -43 -43 -33 -15 6 -21 45 -8 58 16 16 48 1
51 -25z m1023 15 c9 -11 10 -20 2 -32 -13 -22 -43 -22 -56 -1 -24 38 25 68 54
33z m-931 -199 c36 -75 105 -149 173 -185 29 -15 47 -32 47 -42 0 -16 -14 -18
-145 -18 l-145 0 0 155 c0 147 1 155 19 155 15 0 29 -18 51 -65z m855 -90 l0
-150 -147 -3 c-136 -2 -148 -1 -148 15 0 11 23 31 62 53 69 39 128 106 166
188 19 43 28 53 45 50 21 -3 22 -7 22 -153z m-436 -149 c23 -28 -17 -68 -45
-45 -15 12 -19 41 -7 52 11 12 40 8 52 -7z"/>
<path d="M747 754 c-4 -4 -7 -43 -7 -86 0 -72 9 -95 26 -66 5 8 11 5 20 -7 8
-10 16 -16 19 -13 3 3 -1 13 -10 21 -23 24 -19 47 9 47 32 0 39 -12 26 -44 -7
-20 -6 -26 5 -26 35 0 58 53 33 78 -8 8 -8 15 2 26 15 19 6 46 -15 46 -8 0
-14 6 -12 13 2 13 -83 23 -96 11z m88 -45 c9 -14 1 -21 -30 -24 -19 -3 -25 1
-25 16 0 13 7 19 24 19 14 0 28 -5 31 -11z"/>
<path d="M915 750 c-3 -5 6 -26 21 -46 16 -20 30 -55 33 -78 4 -27 11 -41 21
-41 10 0 17 14 21 41 3 23 17 58 32 77 47 61 24 83 -25 25 l-28 -33 -26 33
c-27 33 -39 39 -49 22z"/>
<path d="M1110 740 c0 -15 6 -20 25 -20 23 0 24 -3 27 -67 2 -55 6 -68 21 -71
15 -3 17 5 17 67 0 69 0 70 28 73 16 2 27 9 27 18 0 12 -16 16 -72 18 -68 3
-73 1 -73 -18z"/>
<path d="M1297 753 c-4 -3 -7 -44 -7 -90 l0 -84 63 3 c72 3 83 21 17 28 -32 4
-46 10 -48 23 -3 14 4 17 37 17 30 0 41 4 41 15 0 9 -9 15 -24 15 -67 0 -79
37 -14 42 31 2 44 8 46 21 3 14 -5 17 -51 17 -29 0 -57 -3 -60 -7z"/>
<path d="M1469 731 c-37 -37 -38 -79 -3 -120 27 -33 67 -41 105 -20 26 14 13
32 -18 24 -36 -9 -73 18 -73 54 0 39 22 55 65 48 40 -7 52 5 29 27 -25 26 -72
20 -105 -13z"/>
<path d="M1637 754 c-4 -4 -7 -45 -7 -91 0 -64 3 -83 14 -83 15 0 26 21 26 51
0 15 7 19 34 19 32 0 35 -3 38 -32 2 -21 8 -33 18 -33 12 0 15 16 15 85 0 69
-3 85 -15 85 -10 0 -16 -12 -18 -32 -3 -30 -6 -33 -37 -33 -31 0 -34 3 -37 32
-3 31 -17 45 -31 32z"/>
</g>
</svg>
